<svg xmlns="http://www.w3.org/2000/svg" version="1.0" width="654.000000pt" height="623.000000pt" viewBox="0 0 654.000000 623.000000" preserveAspectRatio="xMidYMid meet">

<g transform="translate(0.000000,623.000000) scale(0.100000,-0.100000)" fill="#ffffff" stroke="none">
<path d="M1985 6154 c-385 -49 -755 -205 -1060 -448 -369 -294 -626 -693 -745 -1156 -55 -216 -74 -529 -46 -765 57 -466 252 -880 575 -1217 189 -197 378 -336 608 -448 503 -245 1077 -284 1613 -109 204 67 433 184 587 301 35 26 67 48 71 48 4 0 121 -114 261 -254 l254 -254 -20 -28 c-51 -76 -58 -161 -19 -237 17 -35 222 -244 771 -790 l747 -742 56 -3 56 -3 278 278 c241 241 278 282 278 308 0 27 -90 120 -772 802 -639 637 -780 773 -813 783 -75 24 -159 11 -221 -35 -20 -15 -31 -5 -278 239 l-258 255 35 43 c177 219 335 554 401 850 70 316 66 667 -10 973 -194 779 -804 1384 -1579 1568 -232 56 -531 71 -770 41z m570 -457 c285 -54 535 -168 760 -347 59 -47 209 -196 258 -255 59 -73 160 -232 203 -322 229 -480 225 -1015 -11 -1488 -410 -822 -1398 -1164 -2230 -770 -285 134 -507 326 -686 592 -246 364 -335 834 -243 1282 42 203 149 447 272 621 82 115 257 295 370 378 224 166 498 278 771 317 121 18 424 13 536 -8z" fill="#ffffff"/>
</g>
</svg>